<svg width="45" height="40" viewBox="0 0 45 40" fill="none" xmlns="http://www.w3.org/2000/svg">
<path d="M40.0764 37.8352C40.0764 38.707 39.2775 39.4141 38.2931 39.4141H6.70695C6.21476 39.4141 5.76915 39.2375 5.44572 38.9516C5.12316 38.6656 4.92365 38.2711 4.92365 37.8352C4.92365 37.4156 5.30773 37.0758 5.78234 37.0758H39.2177C39.455 37.0758 39.6694 37.1609 39.825 37.2984C39.9806 37.4359 40.0764 37.625 40.0764 37.8352Z" fill="#46637F"/>
<path d="M39.825 37.2984C39.9806 37.4359 40.0764 37.625 40.0764 37.8352C40.0764 38.707 39.2775 39.4141 38.2931 39.4141H35.6564C36.6407 39.4141 37.4397 38.707 37.4397 37.8352C37.4397 37.625 37.3439 37.4359 37.1883 37.2984C37.0327 37.1609 36.8183 37.0758 36.581 37.0758H39.2177C39.455 37.0758 39.6695 37.1609 39.825 37.2984Z" fill="#234063"/>
<path d="M37.1661 2.92781C38.7732 2.92781 40.0759 4.08492 40.0759 5.51227V18.9425C40.0759 19.573 40.6215 20.1155 41.3306 20.1452C42.0877 20.1768 42.7127 19.641 42.7127 18.9755V5.48445C42.7127 2.77906 40.2434 0.585938 37.1974 0.585938H7.80258C4.75655 0.585938 2.28735 2.77906 2.28735 5.48445V18.9755C2.28735 19.6223 2.87763 20.1465 3.60571 20.1465C4.3338 20.1465 4.92407 19.6223 4.92407 18.9755V5.51219C4.92407 4.08484 6.22688 2.92773 7.83387 2.92773H37.1661V2.92781Z" fill="#FFC552"/>
<path d="M40.0764 10.8945V35.9062C40.0764 36.5523 39.4866 37.0758 38.7589 37.0758H6.24113C5.51339 37.0758 4.92365 36.5523 4.92365 35.9062V10.8945C4.92365 9.61873 5.91593 8.50702 7.31691 8.22577C17.035 6.27577 27.1116 6.22186 36.8499 8.06405C37.1285 8.11639 37.4054 8.1703 37.6831 8.22577C39.0841 8.50702 40.0764 9.61873 40.0764 10.8945Z" fill="#40D7FF"/>
<path d="M40.0764 10.8945V35.9062C40.0764 36.5523 39.4866 37.0758 38.7589 37.0758H6.24113C5.51339 37.0758 4.92365 36.5523 4.92365 35.9062V34.5422H34.766C35.9165 34.5422 36.8499 33.7133 36.8499 32.6898V8.06406C37.1285 8.11641 37.4054 8.17031 37.6831 8.22578C39.0841 8.50703 40.0764 9.61875 40.0764 10.8945Z" fill="#2AA6F2"/>
<path d="M4.92365 12.6125H40.0764V17.8047H4.92365V12.6125Z" fill="#FFFF4D"/>
<path d="M24.933 15.0926H20.0668C18.5257 15.0926 17.2764 13.9821 17.2764 12.6122H27.7234C27.7235 13.9821 26.4742 15.0926 24.933 15.0926Z" fill="#FFE150"/>
<path d="M36.8499 12.6125H40.0763V17.8047H36.8499V12.6125Z" fill="#FFE150"/>
<path d="M18.9698 28.653L17.447 28.2906C17.0957 28.207 16.7339 28.3925 16.6398 28.7051C16.5456 29.0177 16.7544 29.339 17.106 29.4227L18.2553 29.6962L17.9475 30.7166C17.8532 31.0292 18.0618 31.3505 18.4135 31.4344C18.4706 31.448 18.5281 31.4545 18.5846 31.4545C18.8756 31.4545 19.1419 31.2819 19.2209 31.0201L19.6288 29.668L21.8409 28.5336V30.8014L20.7265 31.7912C20.469 32.0199 20.4688 32.3909 20.7262 32.6198C20.9834 32.8489 21.4008 32.8488 21.6583 32.6201L22.5001 31.8726L23.3418 32.6202C23.4705 32.7345 23.6391 32.7916 23.8077 32.7916C23.9764 32.7916 24.1453 32.7344 24.2739 32.6198C24.5313 32.3909 24.5311 32.0199 24.2736 31.7912L23.1592 30.8015V28.5336L25.3713 29.6679L25.7792 31.02C25.8581 31.2818 26.1244 31.4544 26.4154 31.4544C26.4719 31.4544 26.5294 31.4479 26.5865 31.4342C26.9382 31.3504 27.1468 31.029 27.0525 30.7165L26.7447 29.6961L27.894 29.4226C28.2456 29.3389 28.4544 29.0176 28.3602 28.705C28.2661 28.3923 27.9044 28.2067 27.5531 28.2905L26.0302 28.6529L23.819 27.519L26.0302 26.3852L27.5531 26.7476C27.6101 26.7612 27.6675 26.7677 27.7239 26.7677C28.015 26.7677 28.2814 26.595 28.3602 26.3331C28.4544 26.0205 28.2456 25.6993 27.894 25.6155L26.7447 25.342L27.0525 24.3217C27.1468 24.0092 26.9382 23.6879 26.5866 23.604C26.2351 23.52 25.8735 23.7055 25.7792 24.0182L25.3713 25.3702L23.1592 26.5047V24.2369L24.2736 23.2472C24.5311 23.0184 24.5313 22.6474 24.2739 22.4186C24.0167 22.1895 23.5993 22.1894 23.3418 22.4182L22.5001 23.1657L21.6583 22.4181C21.4008 22.1894 20.9834 22.1896 20.7262 22.4185C20.4688 22.6474 20.469 23.0184 20.7265 23.2471L21.8409 24.2369V26.5047L19.6288 25.3704L19.2209 24.0183C19.1265 23.7058 18.7652 23.5201 18.4134 23.6041C18.0618 23.688 17.8532 24.0094 17.9475 24.3219L18.2553 25.3422L17.106 25.6157C16.7544 25.6994 16.5456 26.0207 16.6398 26.3333C16.7186 26.5951 16.985 26.7679 17.2761 26.7679C17.3325 26.7679 17.3899 26.7614 17.447 26.7478L18.9698 26.3854L21.181 27.5192L18.9698 28.653Z" fill="black"/>
<path d="M37.1975 0H7.80252C4.39799 0 1.62811 2.46031 1.62811 5.48438V18.9755C1.62811 19.9443 2.51519 20.7324 3.60565 20.7324C3.83672 20.7324 4.05855 20.697 4.26483 20.632V35.9059C4.26483 36.2936 4.40695 36.6523 4.64733 36.9431C4.40941 37.1808 4.26483 37.4934 4.26483 37.8355C4.26483 39.0289 5.3603 39.9999 6.70679 39.9999H38.2932C39.6397 39.9999 40.7351 39.0289 40.7351 37.8355C40.7351 37.4934 40.5905 37.1808 40.3526 36.9431C40.593 36.6523 40.7351 36.2936 40.7351 35.9059V20.6316C40.9127 20.688 41.1022 20.7222 41.2996 20.7305C41.846 20.7527 42.3647 20.5814 42.7596 20.2465C43.1487 19.9166 43.3719 19.4534 43.3719 18.9755V5.48438C43.3719 2.46031 40.6021 0 37.1975 0V0ZM39.4169 12.0263H35.5332C35.1691 12.0263 34.874 12.2886 34.874 12.6123C34.874 12.9359 35.1691 13.1982 35.5332 13.1982H39.4169V17.2188H5.58319V13.1982H16.6805C16.989 14.6097 18.3902 15.6786 20.0669 15.6786H24.9331C26.6098 15.6786 28.011 14.6097 28.3194 13.1982H32.4415C32.8056 13.1982 33.1007 12.9359 33.1007 12.6123C33.1007 12.2886 32.8056 12.0263 32.4415 12.0263H5.58319V10.8949C5.58319 9.8818 6.35584 9.01922 7.46221 8.79727C12.3892 7.80875 17.4487 7.3075 22.5 7.3075C27.5514 7.3075 32.6109 7.80875 37.5379 8.79719C38.6441 9.01914 39.4168 9.88172 39.4168 10.8948V12.0263H39.4169ZM18.0399 13.1982H26.96C26.6818 13.957 25.8783 14.5067 24.9331 14.5067H20.0669C19.1217 14.5067 18.3182 13.9569 18.0399 13.1982ZM38.2932 38.8281H6.70687C6.08733 38.8281 5.58328 38.3829 5.58328 37.8355C5.58328 37.7397 5.6724 37.6618 5.782 37.6618H8.69549C9.05953 37.6618 9.35467 37.3995 9.35467 37.0759C9.35467 36.7522 9.05953 36.4899 8.69549 36.4899H6.24088C5.87824 36.4899 5.58319 36.2279 5.58319 35.9059V18.3905H39.4168V35.9059C39.4168 36.2279 39.1217 36.4899 38.7591 36.4899H11.7811C11.417 36.4899 11.1219 36.7522 11.1219 37.0759C11.1219 37.3995 11.417 37.6618 11.7811 37.6618H39.2181C39.3277 37.6618 39.4168 37.7397 39.4168 37.8355C39.4169 38.3829 38.9128 38.8281 38.2932 38.8281ZM42.0536 18.9755C42.0536 19.1368 41.9812 19.287 41.8497 19.3986C41.7179 19.5103 41.5443 19.5671 41.3616 19.5598C41.0162 19.5453 40.7352 19.2684 40.7352 18.9425V5.51227C40.7352 3.76406 39.1342 2.34188 37.1663 2.34188H32.6174C32.2533 2.34188 31.9582 2.60414 31.9582 2.92781C31.9582 3.25148 32.2533 3.51375 32.6174 3.51375H37.1663C38.4073 3.51375 39.4169 4.41031 39.4169 5.51227V8.35344C38.9714 8.01937 38.4319 7.77516 37.8282 7.65406C32.806 6.64648 27.6489 6.13563 22.5 6.13563C17.3511 6.13563 12.1941 6.64648 7.17199 7.65406C6.56827 7.77516 6.02871 8.01945 5.58319 8.35344V5.51227C5.58319 4.41031 6.59279 3.51375 7.83381 3.51375H29.5544C29.9184 3.51375 30.2136 3.25148 30.2136 2.92781C30.2136 2.60414 29.9184 2.34188 29.5544 2.34188H7.8339C5.86594 2.34188 4.26492 3.76406 4.26492 5.51227V18.9755C4.26492 19.2981 3.96926 19.5605 3.60574 19.5605C3.24231 19.5605 2.94656 19.2981 2.94656 18.9755V5.48438C2.94656 3.10641 5.12502 1.17188 7.80261 1.17188H37.1975C39.8751 1.17188 42.0536 3.10648 42.0536 5.48438V18.9755Z" fill="black"/>
</svg>
