<svg id="Layer_1" enable-background="new 0 0 512 512" height="512" viewBox="0 0 512 512" width="512" xmlns="http://www.w3.org/2000/svg"><g><path d="m455.98 484.29c0 11.16-9.09 20.21-20.29 20.21h-359.38c-5.6 0-10.67-2.26-14.35-5.92-3.67-3.66-5.94-8.71-5.94-14.29 0-5.37 4.37-9.72 9.77-9.72h380.42c2.7 0 5.14 1.09 6.91 2.85s2.86 4.18 2.86 6.87z" fill="#46637f"/><path d="m453.12 477.42c1.77 1.76 2.86 4.18 2.86 6.87 0 11.16-9.09 20.21-20.29 20.21h-30c11.2 0 20.29-9.05 20.29-20.21 0-2.69-1.09-5.11-2.86-6.87s-4.21-2.85-6.91-2.85h30c2.7 0 5.14 1.09 6.91 2.85z" fill="#234063"/><path d="m422.868 37.476c18.285 0 33.107 14.811 33.107 33.081v171.907c0 8.07 6.207 15.015 14.275 15.394 8.614.405 15.725-6.453 15.725-14.971v-172.686c0-34.629-28.095-62.701-62.751-62.701h-334.448c-34.657 0-62.751 28.072-62.751 62.701v172.686c0 8.278 6.716 14.988 15 14.988 8.284 0 15-6.71 15-14.988v-172.331c0-18.27 14.823-33.081 33.107-33.081h333.736z" fill="#ffc552"/><path d="m455.98 139.45v320.15c0 8.27-6.71 14.97-14.99 14.97h-369.98c-8.28 0-14.99-6.7-14.99-14.97v-320.15c0-16.33 11.29-30.56 27.23-34.16 110.57-24.96 225.22-25.65 336.02-2.07 3.17.67 6.32 1.36 9.48 2.07 15.94 3.6 27.23 17.83 27.23 34.16z" fill="#40d7ff"/><path d="m455.98 139.45v320.15c0 8.27-6.71 14.97-14.99 14.97h-369.98c-8.28 0-14.99-6.7-14.99-14.97v-17.46h339.54c13.09 0 23.71-10.61 23.71-23.71v-315.21c3.17.67 6.32 1.36 9.48 2.07 15.94 3.6 27.23 17.83 27.23 34.16z" fill="#2aa6f2"/><path d="m56.02 161.44h399.96v66.46h-399.96z" fill="#ffff4d"/><g fill="#ffe150"><path d="m283.683 193.185h-55.367c-17.534 0-31.749-14.214-31.749-31.749h118.864c.001 17.535-14.213 31.749-31.748 31.749z"/><path d="m419.27 161.44h36.71v66.46h-36.71z"/></g></g><g><path d="m215.834 366.759-17.327-4.639c-3.997-1.07-8.113 1.304-9.184 5.306-1.071 4.001 1.304 8.113 5.305 9.185l13.076 3.501-3.502 13.061c-1.073 4.001 1.301 8.113 5.302 9.187.65.175 1.304.258 1.947.258 3.311 0 6.341-2.209 7.239-5.56l4.641-17.307 25.169-14.521v29.028l-12.679 12.669c-2.93 2.928-2.932 7.677-.004 10.606 2.927 2.933 7.676 2.932 10.606.005l9.577-9.568 9.577 9.569c1.464 1.463 3.383 2.194 5.301 2.194 1.92 0 3.841-.733 5.305-2.199 2.928-2.93 2.926-7.679-.004-10.606l-12.679-12.669v-29.029l25.168 14.519 4.641 17.307c.898 3.351 3.928 5.56 7.239 5.56.643 0 1.297-.083 1.947-.258 4.001-1.073 6.375-5.186 5.302-9.187l-3.502-13.061 13.076-3.501c4.001-1.071 6.376-5.184 5.305-9.185-1.071-4.002-5.187-6.378-9.184-5.306l-17.327 4.639-25.158-14.513 25.158-14.513 17.327 4.639c.649.174 1.302.257 1.944.257 3.312 0 6.343-2.211 7.24-5.563 1.071-4.001-1.304-8.113-5.305-9.185l-13.076-3.501 3.502-13.06c1.073-4-1.301-8.113-5.301-9.187-3.999-1.075-8.114 1.3-9.187 5.302l-4.641 17.306-25.168 14.522v-29.028l12.679-12.669c2.93-2.928 2.932-7.677.004-10.606-2.927-2.932-7.676-2.933-10.606-.005l-9.577 9.568-9.577-9.569c-2.93-2.928-7.679-2.925-10.606.005-2.928 2.93-2.926 7.679.004 10.606l12.679 12.669v29.028l-25.169-14.519-4.641-17.306c-1.073-4.001-5.184-6.377-9.187-5.302-4 1.073-6.374 5.187-5.301 9.187l3.502 13.06-13.076 3.501c-4.001 1.071-6.376 5.184-5.305 9.185.897 3.352 3.928 5.563 7.24 5.563.642 0 1.295-.083 1.944-.257l17.327-4.639 25.158 14.513z"/><path d="m423.225 0h-334.45c-38.736 0-70.251 31.492-70.251 70.2v172.687c0 12.4 10.093 22.488 22.5 22.488 2.629 0 5.153-.453 7.5-1.285v195.506c0 4.962 1.617 9.554 4.352 13.276-2.707 3.042-4.352 7.044-4.352 11.422 0 15.276 12.464 27.705 27.784 27.705h359.383c15.32 0 27.784-12.429 27.784-27.705 0-4.378-1.646-8.38-4.352-11.422 2.735-3.722 4.352-8.314 4.352-13.276v-195.512c2.02.722 4.176 1.16 6.422 1.266 6.217.284 12.119-1.908 16.612-6.195 4.427-4.223 6.966-10.152 6.966-16.268v-172.687c.001-38.708-31.514-70.2-70.25-70.2zm25.251 153.937h-44.188c-4.142 0-7.5 3.357-7.5 7.5s3.358 7.5 7.5 7.5h44.188v51.463h-384.952v-51.463h126.263c3.51 18.067 19.452 31.749 38.529 31.749h55.367c19.077 0 35.019-13.682 38.529-31.749h46.9c4.142 0 7.5-3.357 7.5-7.5s-3.358-7.5-7.5-7.5h-305.588v-14.482c0-12.968 8.791-24.009 21.379-26.85 56.058-12.653 113.624-19.069 171.097-19.069s115.039 6.416 171.097 19.068c12.587 2.841 21.378 13.882 21.378 26.85v14.483zm-243.222 15h101.491c-3.166 9.712-12.308 16.749-23.062 16.749h-55.367c-10.754 0-19.896-7.038-23.062-16.749zm230.437 328.063h-359.382c-7.049 0-12.784-5.699-12.784-12.705 0-1.227 1.014-2.224 2.261-2.224h33.149c4.142 0 7.5-3.357 7.5-7.5s-3.358-7.5-7.5-7.5h-27.928c-4.126 0-7.483-3.354-7.483-7.475v-224.197h384.951v224.197c0 4.121-3.357 7.475-7.483 7.475h-306.95c-4.142 0-7.5 3.357-7.5 7.5s3.358 7.5 7.5 7.5h312.172c1.247 0 2.261.997 2.261 2.224.001 7.006-5.734 12.705-12.784 12.705zm42.785-254.113c0 2.064-.824 3.987-2.32 5.415-1.499 1.43-3.475 2.157-5.553 2.063-3.93-.185-7.127-3.729-7.127-7.901v-171.907c0-22.377-18.216-40.581-40.607-40.581h-51.756c-4.142 0-7.5 3.357-7.5 7.5s3.358 7.5 7.5 7.5h51.756c14.12 0 25.607 11.476 25.607 25.581v36.367c-5.069-4.276-11.207-7.402-18.076-8.952-57.141-12.897-115.817-19.436-174.4-19.436s-117.259 6.539-174.399 19.436c-6.869 1.55-13.008 4.677-18.077 8.952v-36.367c0-14.105 11.487-25.581 25.607-25.581h247.132c4.142 0 7.5-3.357 7.5-7.5s-3.358-7.5-7.5-7.5h-247.131c-22.391 0-40.607 18.204-40.607 40.581v172.33c0 4.129-3.364 7.488-7.5 7.488-4.135 0-7.5-3.359-7.5-7.488v-172.687c0-30.438 24.786-55.2 55.251-55.2h334.449c30.465 0 55.251 24.763 55.251 55.2z"/></g></svg>