<svg height="512" viewBox="0 0 512 512" width="512" xmlns="http://www.w3.org/2000/svg"><path d="M455.98 484.29c0 11.16-9.09 20.21-20.29 20.21H76.31c-5.6 0-10.67-2.26-14.35-5.92-3.67-3.66-5.94-8.71-5.94-14.29 0-5.37 4.37-9.72 9.77-9.72h380.42c2.7 0 5.14 1.09 6.91 2.85s2.86 4.18 2.86 6.87z" fill="#46637f"/><path d="M453.12 477.42a9.64 9.64 0 012.86 6.87c0 11.16-9.09 20.21-20.29 20.21h-30c11.2 0 20.29-9.05 20.29-20.21 0-2.69-1.09-5.11-2.86-6.87s-4.21-2.85-6.91-2.85h30c2.7 0 5.14 1.09 6.91 2.85z" fill="#234063"/><path d="M422.868 37.476c18.285 0 33.107 14.811 33.107 33.081v171.907c0 8.07 6.207 15.015 14.275 15.394 8.614.405 15.725-6.453 15.725-14.971V70.201c0-34.629-28.095-62.701-62.751-62.701H88.776c-34.657 0-62.751 28.072-62.751 62.701v172.686c0 8.278 6.716 14.988 15 14.988 8.284 0 15-6.71 15-14.988V70.556c0-18.27 14.823-33.081 33.107-33.081h333.736z" fill="#ffc552"/><path d="M455.98 139.45V459.6c0 8.27-6.71 14.97-14.99 14.97H71.01c-8.28 0-14.99-6.7-14.99-14.97V139.45c0-16.33 11.29-30.56 27.23-34.16a784.493 784.493 0 01336.02-2.07c3.17.67 6.32 1.36 9.48 2.07 15.94 3.6 27.23 17.83 27.23 34.16z" fill="#40d7ff"/><path d="M455.98 139.45V459.6c0 8.27-6.71 14.97-14.99 14.97H71.01c-8.28 0-14.99-6.7-14.99-14.97v-17.46h339.54c13.09 0 23.71-10.61 23.71-23.71V103.22c3.17.67 6.32 1.36 9.48 2.07 15.94 3.6 27.23 17.83 27.23 34.16z" fill="#2aa6f2"/><path d="M56.02 161.44h399.96v66.46H56.02z" fill="#ffff4d"/><path d="M283.683 193.185h-55.367c-17.534 0-31.749-14.214-31.749-31.749h118.864c.001 17.535-14.213 31.749-31.748 31.749zM419.27 161.44h36.71v66.46h-36.71z" fill="#ffe150"/><path d="M215.834 366.759l-17.327-4.639a7.501 7.501 0 00-3.879 14.491l13.076 3.501-3.502 13.061a7.5 7.5 0 0014.488 3.885l4.641-17.307L248.5 365.23v29.028l-12.679 12.669a7.5 7.5 0 00-.004 10.606 7.497 7.497 0 0010.606.005L256 407.97l9.577 9.569a7.476 7.476 0 005.301 2.194 7.5 7.5 0 005.301-12.805L263.5 394.259V365.23l25.168 14.519 4.641 17.307a7.502 7.502 0 007.239 5.56 7.5 7.5 0 007.249-9.445l-3.502-13.061 13.076-3.501a7.5 7.5 0 00-3.879-14.491l-17.327 4.639-25.158-14.513 25.158-14.513 17.327 4.639a7.501 7.501 0 001.944.257 7.503 7.503 0 001.935-14.748l-13.076-3.501 3.502-13.06a7.501 7.501 0 00-5.301-9.187 7.499 7.499 0 00-9.187 5.302l-4.641 17.306-25.168 14.522v-29.028l12.679-12.669a7.5 7.5 0 00.004-10.606 7.497 7.497 0 00-10.606-.005L256 296.521l-9.577-9.569a7.5 7.5 0 00-10.606.005 7.5 7.5 0 00.004 10.606l12.679 12.669v29.028l-25.169-14.519-4.641-17.306a7.501 7.501 0 00-14.488 3.885l3.502 13.06-13.076 3.501a7.5 7.5 0 003.879 14.491l17.327-4.639 25.158 14.513z"/><path d="M423.225 0H88.775C50.039 0 18.524 31.492 18.524 70.2v172.687c0 12.4 10.093 22.488 22.5 22.488 2.629 0 5.153-.453 7.5-1.285v195.506c0 4.962 1.617 9.554 4.352 13.276a17.13 17.13 0 00-4.352 11.422c0 15.276 12.464 27.705 27.784 27.705h359.383c15.32 0 27.784-12.429 27.784-27.705 0-4.378-1.646-8.38-4.352-11.422a22.349 22.349 0 004.352-13.276V264.084c2.02.722 4.176 1.16 6.422 1.266 6.217.284 12.119-1.908 16.612-6.195a22.584 22.584 0 006.966-16.268V70.2c.001-38.708-31.514-70.2-70.25-70.2zm25.251 153.937h-44.188c-4.142 0-7.5 3.357-7.5 7.5s3.358 7.5 7.5 7.5h44.188V220.4H63.524v-51.463h126.263c3.51 18.067 19.452 31.749 38.529 31.749h55.367c19.077 0 35.019-13.682 38.529-31.749h46.9c4.142 0 7.5-3.357 7.5-7.5s-3.358-7.5-7.5-7.5H63.524v-14.482c0-12.968 8.791-24.009 21.379-26.85C140.961 99.952 198.527 93.536 256 93.536s115.039 6.416 171.097 19.068c12.587 2.841 21.378 13.882 21.378 26.85v14.483zm-243.222 15h101.491c-3.166 9.712-12.308 16.749-23.062 16.749h-55.367c-10.754 0-19.896-7.038-23.062-16.749zM435.691 497H76.309c-7.049 0-12.784-5.699-12.784-12.705 0-1.227 1.014-2.224 2.261-2.224h33.149c4.142 0 7.5-3.357 7.5-7.5s-3.358-7.5-7.5-7.5H71.007c-4.126 0-7.483-3.354-7.483-7.475V235.399h384.951v224.197c0 4.121-3.357 7.475-7.483 7.475h-306.95c-4.142 0-7.5 3.357-7.5 7.5s3.358 7.5 7.5 7.5h312.172c1.247 0 2.261.997 2.261 2.224.001 7.006-5.734 12.705-12.784 12.705zm42.785-254.113a7.421 7.421 0 01-2.32 5.415c-1.499 1.43-3.475 2.157-5.553 2.063-3.93-.185-7.127-3.729-7.127-7.901V70.557c0-22.377-18.216-40.581-40.607-40.581h-51.756c-4.142 0-7.5 3.357-7.5 7.5s3.358 7.5 7.5 7.5h51.756c14.12 0 25.607 11.476 25.607 25.581v36.367c-5.069-4.276-11.207-7.402-18.076-8.952C373.259 85.075 314.583 78.536 256 78.536S138.741 85.075 81.601 97.972c-6.869 1.55-13.008 4.677-18.077 8.952V70.557c0-14.105 11.487-25.581 25.607-25.581h247.132c4.142 0 7.5-3.357 7.5-7.5s-3.358-7.5-7.5-7.5H89.132c-22.391 0-40.607 18.204-40.607 40.581v172.33c0 4.129-3.364 7.488-7.5 7.488-4.135 0-7.5-3.359-7.5-7.488V70.2c0-30.438 24.786-55.2 55.251-55.2h334.449c30.465 0 55.251 24.763 55.251 55.2z"/></svg>